<svg width="29" height="30" viewBox="0 0 29 30" fill="none" xmlns="http://www.w3.org/2000/svg">
<path d="M22.2402 5.53271C21.911 5.53271 21.5893 5.63412 21.3157 5.8241C21.042 6.01409 20.8288 6.28412 20.7028 6.60005C20.5769 6.91598 20.5439 7.26364 20.6081 7.59903C20.6724 7.93442 20.8308 8.2425 21.0635 8.4843C21.2963 8.72611 21.5928 8.89078 21.9155 8.9575C22.2383 9.02421 22.5729 8.98996 22.8769 8.8591C23.181 8.72823 23.4409 8.50662 23.6237 8.22229C23.8066 7.93796 23.9042 7.60368 23.9042 7.26172C23.9042 6.80316 23.7289 6.36338 23.4168 6.03913C23.1047 5.71488 22.6815 5.53271 22.2402 5.53271Z" fill="#FFD76E"/>
<path d="M14.8642 7.7522C13.4841 7.7522 12.1351 8.17753 10.9877 8.97438C9.84031 9.77122 8.9462 10.9038 8.41844 12.2287C7.89068 13.5537 7.75299 15.0116 8.02281 16.4179C8.29263 17.8242 8.95783 19.1157 9.93424 20.1291C10.9107 21.1425 12.1544 21.8322 13.5081 22.1109C14.8619 22.3897 16.2648 22.2449 17.5393 21.6951C18.8139 21.1452 19.9028 20.2148 20.6684 19.0217C21.434 17.8286 21.8418 16.4264 21.8402 14.9924C21.8381 13.0714 21.1021 11.2299 19.7941 9.87229C18.4861 8.51473 16.7129 7.7522 14.8642 7.7522ZM14.8642 19.6391C13.9794 19.6407 13.114 19.3696 12.3775 18.86C11.641 18.3504 11.0666 17.6253 10.7269 16.7764C10.3872 15.9274 10.2975 14.9929 10.4691 14.091C10.6408 13.1891 11.0661 12.3603 11.6912 11.7096C12.3163 11.0589 13.1131 10.6156 13.9808 10.4356C14.8485 10.2556 15.7481 10.3472 16.5657 10.6986C17.3833 11.0501 18.0822 11.6456 18.574 12.41C19.0657 13.1743 19.3282 14.073 19.3282 14.9924C19.3313 15.604 19.2183 16.2102 18.9954 16.7763C18.7726 17.3424 18.4444 17.8573 18.0297 18.2913C17.615 18.7253 17.1219 19.07 16.5786 19.3055C16.0354 19.5411 15.4528 19.6629 14.8642 19.664V19.6391Z" fill="#FFD76E"/>
<path d="M20.4241 29.7055H9.09609C6.84273 29.7011 4.68298 28.7685 3.09036 27.1121C1.49773 25.4557 0.602212 23.2107 0.600098 20.8693V9.12379C0.602212 6.7824 1.49773 4.53741 3.09036 2.88102C4.68298 1.22463 6.84273 0.291998 9.09609 0.287598H20.4241C22.6788 0.289799 24.8406 1.22146 26.435 2.87809C28.0293 4.53472 28.926 6.78096 28.9281 9.12379V20.8693C28.926 23.2122 28.0293 25.4584 26.435 27.115C24.8406 28.7717 22.6788 29.7033 20.4241 29.7055ZM9.09609 3.03903C7.54853 3.04342 6.06556 3.68415 4.97126 4.82119C3.87697 5.95824 3.26033 7.49914 3.2561 9.10716V20.8527C3.26033 22.4607 3.87697 24.0016 4.97126 25.1387C6.06556 26.2757 7.54853 26.9165 9.09609 26.9208H20.4241C21.9717 26.9165 23.4546 26.2757 24.5489 25.1387C25.6432 24.0016 26.2599 22.4607 26.2641 20.8527V9.12379C26.2641 7.51289 25.6493 5.96771 24.5546 4.82708C23.4598 3.68644 21.9744 3.04343 20.4241 3.03903H9.09609Z" fill="#FFD76E"/>
</svg>
